name ../IE_Laxity/ie_30.mot
datacolumns  10
datarows 29
range   21.00000000 21.28000000
cursor 1.0 1.0 0.0
keys m_key
wrap
enforce_loops no
enforce_constraints no
calc_derivatives -1.000000
event_color 0.000000 0.000000 0.000000
endheader
            time femur_r_force_vx femur_r_force_vy femur_r_force_vz femur_r_force_px femur_r_force_py femur_r_force_pz femur_r_torque_x femur_r_torque_y femur_r_torque_z 
     21.00000000       0.00000000       0.00000000       0.00000000      -0.03798529      -0.50443412       0.00000000       2.20270257       3.81519276       0.00000000 
     21.01000000       0.00000000       0.00000000       0.00000000      -0.03798529      -0.50443412       0.00000000       2.20707181       3.82276052       0.00000000 
     21.02000000       0.00000000       0.00000000       0.00000000      -0.03798529      -0.50443412       0.00000000       2.21141298       3.83027963       0.00000000 
     21.03000000       0.00000000       0.00000000       0.00000000      -0.03798529      -0.50443412       0.00000000       2.21572594       3.83774990       0.00000000 
     21.04000000       0.00000000       0.00000000       0.00000000      -0.03798529      -0.50443412       0.00000000       2.22001056       3.84517109       0.00000000 
     21.05000000       0.00000000       0.00000000       0.00000000      -0.03798529      -0.50443412       0.00000000       2.22426673       3.85254298       0.00000000 
     21.06000000       0.00000000       0.00000000       0.00000000      -0.03798529      -0.50443412       0.00000000       2.22849431       3.85986537       0.00000000 
     21.07000000       0.00000000       0.00000000       0.00000000      -0.03798529      -0.50443412       0.00000000       2.23269318       3.86713803       0.00000000 
     21.08000000       0.00000000       0.00000000       0.00000000      -0.03798529      -0.50443412       0.00000000       2.23686323       3.87436076       0.00000000 
     21.09000000       0.00000000       0.00000000       0.00000000      -0.03798529      -0.50443412       0.00000000       2.24100432       3.88153334       0.00000000 
     21.10000000       0.00000000       0.00000000       0.00000000      -0.03798529      -0.50443412       0.00000000       2.24511633       3.88865556       0.00000000 
     21.11000000       0.00000000       0.00000000       0.00000000      -0.03798529      -0.50443412       0.00000000       2.24919915       3.89572721       0.00000000 
     21.12000000       0.00000000       0.00000000       0.00000000      -0.03798529      -0.50443412       0.00000000       2.25325266       3.90274808       0.00000000 
     21.13000000       0.00000000       0.00000000       0.00000000      -0.03798529      -0.50443412       0.00000000       2.25727673       3.90971798       0.00000000 
     21.14000000       0.00000000       0.00000000       0.00000000      -0.03798529      -0.50443412       0.00000000       2.26127124       3.91663668       0.00000000 
     21.15000000       0.00000000       0.00000000       0.00000000      -0.03798529      -0.50443412       0.00000000       2.26523609       3.92350400       0.00000000 
     21.16000000       0.00000000       0.00000000       0.00000000      -0.03798529      -0.50443412       0.00000000       2.26917115       3.93031973       0.00000000 
     21.17000000       0.00000000       0.00000000       0.00000000      -0.03798529      -0.50443412       0.00000000       2.27307631       3.93708367       0.00000000 
     21.18000000       0.00000000       0.00000000       0.00000000      -0.03798529      -0.50443412       0.00000000       2.27695146       3.94379561       0.00000000 
     21.19000000       0.00000000       0.00000000       0.00000000      -0.03798529      -0.50443412       0.00000000       2.28079647       3.95045538       0.00000000 
     21.20000000       0.00000000       0.00000000       0.00000000      -0.03798529      -0.50443412       0.00000000       2.28461125       3.95706276       0.00000000 
     21.21000000       0.00000000       0.00000000       0.00000000      -0.03798529      -0.50443412       0.00000000       2.28839567       3.96361756       0.00000000 
     21.22000000       0.00000000       0.00000000       0.00000000      -0.03798529      -0.50443412       0.00000000       2.29214962       3.97011960       0.00000000 
     21.23000000       0.00000000       0.00000000       0.00000000      -0.03798529      -0.50443412       0.00000000       2.29587300       3.97656868       0.00000000 
     21.24000000       0.00000000       0.00000000       0.00000000      -0.03798529      -0.50443412       0.00000000       2.29956569       3.98296461       0.00000000 
     21.25000000       0.00000000       0.00000000       0.00000000      -0.03798529      -0.50443412       0.00000000       2.30322759       3.98930721       0.00000000 
     21.26000000       0.00000000       0.00000000       0.00000000      -0.03798529      -0.50443412       0.00000000       2.30685859       3.99559629       0.00000000 
     21.27000000       0.00000000       0.00000000       0.00000000      -0.03798529      -0.50443412       0.00000000       2.31045858       4.00183166       0.00000000 
     21.28000000       0.00000000       0.00000000       0.00000000      -0.03798529      -0.50443412       0.00000000       2.31402747       4.00801314       0.00000000 
